<svg xmlns="http://www.w3.org/2000/svg" viewBox="0 0 940 260" width="100%" height="auto">
  <defs>
    <linearGradient id="actGrad" x1="0%" y1="0%" x2="100%" y2="100%">
      <stop offset="0%" stop-color="#090d0b" />
      <stop offset="100%" stop-color="#020403" />
    </linearGradient>
  </defs>
  <style>
    .dash-label { font-family: 'JetBrains Mono', monospace; font-size: 11px; letter-spacing: 2px; fill: #737373; }
    .dash-val { font-family: 'Space Grotesk', -apple-system, sans-serif; font-size: 24px; font-weight: 800; fill: #f2f2f2; }
    .dash-accent { font-family: 'JetBrains Mono', monospace; font-size: 11px; letter-spacing: 2px; fill: #00ff9c; }
    .bar-bg { fill: #111714; rx: 4px; }
  </style>

  <!-- Container -->
  <rect x="6" y="6" width="928" height="248" rx="12" fill="url(#actGrad)" stroke="#16221c" stroke-width="1.5" />
  <path d="M 6 30 L 6 6 L 30 6" fill="none" stroke="#00ff9c" stroke-width="2" />
  <path d="M 934 30 L 934 6 L 910 6" fill="none" stroke="#00ff9c" stroke-width="2" />
  <path d="M 6 230 L 6 254 L 30 254" fill="none" stroke="#00ff9c" stroke-width="2" />
  <path d="M 934 230 L 934 254 L 910 254" fill="none" stroke="#00ff9c" stroke-width="2" />

  <!-- Header -->
  <g transform="translate(32, 36)">
    <circle cx="4" cy="4" r="4" fill="#00ff9c" />
    <text x="18" y="8" class="dash-accent">SYS_TELEMETRY // REAL-TIME GITHUB AUDIT</text>
    <text x="640" y="8" class="dash-label">NODE: HXNI-786 // SECURE PROBE</text>
    <line x1="0" y1="20" x2="876" y2="20" stroke="#16251d" stroke-width="1" />
  </g>

  <!-- Metrics Grid -->
  <!-- Col 1: Repos -->
  <g transform="translate(32, 85)">
    <text x="0" y="0" class="dash-label">PUBLIC REPOSITORIES</text>
    <text x="0" y="32" class="dash-val">96</text>
    <text x="0" y="52" class="dash-accent">SYSTEMS INDEXED</text>
  </g>

  <!-- Col 2: Followers -->
  <g transform="translate(230, 85)">
    <text x="0" y="0" class="dash-label">NETWORK NODES</text>
    <text x="0" y="32" class="dash-val">85</text>
    <text x="0" y="52" class="dash-accent">FOLLOWERS CONNECTED</text>
  </g>

  <!-- Col 3: Experience -->
  <g transform="translate(420, 85)">
    <text x="0" y="0" class="dash-label">CORE DOMAINS</text>
    <text x="0" y="32" class="dash-val">FULL-STACK / 3D</text>
    <text x="0" y="52" class="dash-accent">INTERACTION SPECIALIST</text>
  </g>

  <!-- Col 4: Status -->
  <g transform="translate(680, 85)">
    <text x="0" y="0" class="dash-label">SECURITY PROTOCOL</text>
    <text x="0" y="32" class="dash-val" fill="#00ff9c" style="fill:#00ff9c">CLASSIFIED</text>
    <text x="0" y="52" class="dash-label">ACCESS: GRANTED</text>
  </g>

  <!-- Language Distribution Segment -->
  <g transform="translate(32, 180)">
    <text x="0" y="0" class="dash-label">LANGUAGE DISTRIBUTION MATRIX</text>
    <!-- Bar segments -->
    <g transform="translate(0, 14)">
      <rect x="0" y="0" width="876" height="8" class="bar-bg" />
      <rect x="0" y="0" width="396" height="8" rx="2" fill="#00ff9c" />
      <rect x="396" y="0" width="221" height="8" rx="2" fill="#00c8ff" />
      <rect x="617" y="0" width="198" height="8" rx="2" fill="#3178c6" />
      <rect x="815" y="0" width="46" height="8" rx="2" fill="#e34c26" />
      <rect x="861" y="0" width="11" height="8" rx="2" fill="#f7df1e" />
    </g>
    <g transform="translate(0, 42)">
      <circle cx="4" cy="4" r="4" fill="#00ff9c" />
      <text x="14" y="7" class="dash-label">JavaScript <tspan fill="#f2f2f2">45.3%</tspan></text>
      <circle cx="164" cy="4" r="4" fill="#00c8ff" />
      <text x="174" y="7" class="dash-label">CSS <tspan fill="#f2f2f2">25.3%</tspan></text>
      <circle cx="324" cy="4" r="4" fill="#3178c6" />
      <text x="334" y="7" class="dash-label">HTML <tspan fill="#f2f2f2">22.7%</tspan></text>
      <circle cx="484" cy="4" r="4" fill="#e34c26" />
      <text x="494" y="7" class="dash-label">TypeScript <tspan fill="#f2f2f2">5.3%</tspan></text>
      <circle cx="644" cy="4" r="4" fill="#f7df1e" />
      <text x="654" y="7" class="dash-label">Python <tspan fill="#f2f2f2">1.3%</tspan></text>
    </g>
  </g>
</svg>